<svg width="80" height="80" viewBox="0 0 80 80" fill="none" xmlns="http://www.w3.org/2000/svg">
<path d="M73.6848 36.886L43.1223 6.32355C42.7042 5.90403 42.2075 5.57116 41.6605 5.34404C41.1135 5.11691 40.5271 5 39.9348 5C39.3425 5 38.7561 5.11691 38.2091 5.34404C37.6621 5.57116 37.1654 5.90403 36.7473 6.32355L30.3998 12.671L38.4498 20.721C39.3991 20.398 40.42 20.3481 41.3962 20.577C42.3725 20.806 43.2648 21.3045 43.9715 22.0159C44.6782 22.7273 45.1708 23.6229 45.3933 24.6006C45.6158 25.5784 45.5591 26.5989 45.2298 27.546L52.9798 35.296C54.1382 34.8981 55.3981 34.9091 56.5494 35.3272C57.7007 35.7454 58.6739 36.5454 59.307 37.5941C59.94 38.6427 60.1946 39.8766 60.0284 41.0901C59.8621 42.3037 59.285 43.4236 58.3932 44.2633C57.5015 45.1031 56.3489 45.6118 55.1275 45.7049C53.9062 45.798 52.6898 45.4697 51.6811 44.7748C50.6724 44.08 49.9323 43.0604 49.584 41.8861C49.2358 40.7117 49.3005 39.4535 49.7673 38.321L42.5298 31.0835V50.126C43.6262 50.6693 44.5033 51.5717 45.0152 52.683C45.527 53.7944 45.6426 55.0475 45.3428 56.2338C45.043 57.42 44.3458 58.4677 43.3673 59.2024C42.3889 59.937 41.1883 60.3143 39.9655 60.2713C38.7427 60.2284 37.5715 59.7677 36.6471 58.9662C35.7227 58.1646 35.1007 57.0706 34.8849 55.8662C34.6691 54.6618 34.8724 53.4199 35.4611 52.3472C36.0497 51.2746 36.988 50.4359 38.1198 49.971V30.7535C37.465 30.4849 36.8699 30.0894 36.3686 29.5897C35.8674 29.0901 35.47 28.4962 35.1993 27.8423C34.9285 27.1884 34.7899 26.4873 34.7913 25.7796C34.7926 25.0719 34.934 24.3714 35.2073 23.7185L27.2823 15.7885L6.3248 36.7535C5.90491 37.1717 5.57172 37.6686 5.34438 38.2158C5.11703 38.763 5 39.3497 5 39.9423C5 40.5349 5.11703 41.1216 5.34438 41.6688C5.57172 42.216 5.90491 42.7129 6.3248 43.131L36.8873 73.6835C37.3054 74.1031 37.8021 74.4359 38.3491 74.6631C38.8961 74.8902 39.4825 75.0071 40.0748 75.0071C40.6671 75.0071 41.2535 74.8902 41.8005 74.6631C42.3475 74.4359 42.8442 74.1031 43.2623 73.6835L73.6848 43.2535C74.1047 42.8354 74.4379 42.3385 74.6652 41.7913C74.8926 41.2441 75.0096 40.6574 75.0096 40.0648C75.0096 39.4722 74.8926 38.8855 74.6652 38.3383C74.4379 37.7911 74.1047 37.2942 73.6848 36.876" fill="#DD4C35"/>
<path d="M30.3997 12.6709L38.4497 20.7209C39.399 20.3979 40.4199 20.348 41.3962 20.5769C42.3724 20.8058 43.2647 21.3044 43.9714 22.0158C44.6781 22.7271 45.1708 23.6227 45.3932 24.6005C45.6157 25.5782 45.559 26.5988 45.2297 27.5459L52.9797 35.2959C54.1382 34.8979 55.398 34.9089 56.5493 35.3271C57.7006 35.7452 58.6739 36.5453 59.3069 37.5939C59.94 38.6425 60.1946 39.8764 60.0283 41.09C59.862 42.3035 59.2849 43.4235 58.3932 44.2632C57.5014 45.1029 56.3488 45.6117 55.1275 45.7048C53.9061 45.7978 52.6898 45.4696 51.681 44.7747C50.6723 44.0798 49.9322 43.0603 49.584 41.8859C49.2357 40.7116 49.3004 39.4533 49.7672 38.3209L42.5297 31.0834V50.1259C43.6261 50.6691 44.5032 51.5715 45.0151 52.6829C45.5269 53.7942 45.6426 55.0474 45.3427 56.2336C45.0429 57.4199 44.3457 58.4676 43.3673 59.2022C42.3888 59.9369 41.1882 60.3142 39.9654 60.2712C38.7426 60.2282 37.5715 59.7676 36.647 58.966C35.7226 58.1645 35.1007 57.0704 34.8848 55.8661C34.669 54.6617 34.8724 53.4197 35.461 52.3471C36.0496 51.2744 36.9879 50.4358 38.1197 49.9709V30.7534C37.465 30.4848 36.8698 30.0892 36.3686 29.5896C35.8673 29.0899 35.4699 28.496 35.1992 27.8421C34.9285 27.1882 34.7898 26.4872 34.7912 25.7795C34.7926 25.0717 34.934 24.3713 35.2072 23.7184L27.2822 15.7884" fill="white"/>
</svg>
