<svg width="80" height="80" viewBox="0 0 80 80" fill="none" xmlns="http://www.w3.org/2000/svg">
<path d="M14.7552 68.0025L9.1377 5H70.8627L65.2377 67.9925L39.9627 75L14.7552 68.0025Z" fill="#E44F26"/>
<path d="M40 69.6451L60.425 63.9826L65.23 10.1526H40V69.6451Z" fill="#F1662A"/>
<path d="M40 33.5174H29.775L29.07 25.6049H40V17.8774H20.625L20.81 19.9524L22.7075 41.2449H40V33.5174ZM40 53.5849L39.965 53.5949L31.36 51.2724L30.81 45.1099H23.0525L24.135 57.2399L39.965 61.6349L40 61.6249V53.5849Z" fill="#EBEBEB"/>
<path d="M39.9727 33.5174V41.2449H49.4877L48.5927 51.2674L39.9727 53.5924V61.6324L55.8152 57.2399L55.9302 55.9349L57.7452 35.5924L57.9352 33.5174H39.9727ZM39.9727 17.8774V25.6049H58.6377L58.7927 23.8699L59.1452 19.9524L59.3302 17.8774H39.9727Z" fill="white"/>
</svg>
