<svg width="80" height="80" viewBox="0 0 80 80" fill="none" xmlns="http://www.w3.org/2000/svg">
<path d="M40 46.3311C43.4518 46.3311 46.25 43.5328 46.25 40.0811C46.25 36.6293 43.4518 33.8311 40 33.8311C36.5482 33.8311 33.75 36.6293 33.75 40.0811C33.75 43.5328 36.5482 46.3311 40 46.3311Z" fill="#00D8FF"/>
<path d="M40 54.4112C32.4878 54.5929 24.9945 53.5803 17.8 51.4112C14.4766 50.3576 11.3768 48.698 8.6575 46.5162C7.61982 45.7708 6.75568 44.8098 6.12436 43.699C5.49303 42.5883 5.10947 41.3541 5 40.0812C5 35.9487 9.54 31.8987 17.145 29.2487C24.5318 26.9006 32.2498 25.7625 40 25.8787C47.6468 25.7718 55.2614 26.8893 62.555 29.1887C65.7557 30.2091 68.7503 31.7885 71.4 33.8537C72.4199 34.5643 73.2711 35.4905 73.8932 36.5667C74.5154 37.6429 74.8932 38.8427 75 40.0812C75 44.3762 69.925 48.7287 61.75 51.4337C54.6948 53.5321 47.3596 54.5363 40 54.4112ZM40 28.8687C32.5853 28.7696 25.2021 29.8514 18.1275 32.0737C11.1275 34.5162 7.99 37.8562 7.99 40.0737C7.99 42.3937 11.3625 46.0412 18.7675 48.5737C25.6502 50.6383 32.8165 51.5994 40 51.4212C47.041 51.5471 54.0598 50.5944 60.8125 48.5962C68.5 46.0487 72 42.3962 72 40.0812C71.8739 39.2867 71.5844 38.5271 71.1497 37.8502C70.7151 37.1734 70.1449 36.594 69.475 36.1487C67.1044 34.3165 64.4292 32.9168 61.5725 32.0137C54.5951 29.8231 47.3124 28.7614 40 28.8687Z" fill="#00D8FF"/>
<path d="M25.8 71.2537C24.6338 71.2804 23.4813 70.9975 22.46 70.4337C18.88 68.3687 17.64 62.4137 19.1425 54.5012C20.7991 46.9289 23.6695 39.6744 27.6425 33.0187C31.3693 26.3414 36.1405 20.3035 41.775 15.1337C44.2579 12.8704 47.1222 11.065 50.235 9.80117C51.3609 9.27352 52.5891 9 53.8325 9C55.0759 9 56.3041 9.27352 57.43 9.80117C61.1525 11.9462 62.385 18.5162 60.6475 26.9487C58.9397 34.1101 56.1439 40.9673 52.3575 47.2812C48.7618 53.8796 44.1409 59.865 38.6675 65.0137C36.0945 67.3656 33.1083 69.221 29.86 70.4862C28.5596 70.9688 27.1869 71.2283 25.8 71.2537ZM30.2325 34.5037C26.4427 40.877 23.6917 47.8129 22.0825 55.0512C20.7 62.3387 22.0275 66.7212 23.9575 67.8362C25.9575 68.9937 30.8125 67.8962 36.7075 62.7462C41.9326 57.8135 46.3431 52.0842 49.775 45.7712C53.4023 39.735 56.0842 33.179 57.7275 26.3312C59.3625 18.3937 57.95 13.5337 55.945 12.3787C55.1935 12.0907 54.3905 11.9618 53.5867 12.0001C52.7828 12.0384 51.9957 12.2431 51.275 12.6012C48.5042 13.7445 45.9568 15.3677 43.75 17.3962C38.3667 22.3481 33.8092 28.1285 30.25 34.5187L30.2325 34.5037Z" fill="#00D8FF"/>
<path d="M54.1926 71.2859C50.8051 71.2859 46.5026 69.2359 42.0226 65.3834C36.2894 60.1666 31.4376 54.0569 27.6551 47.2909C23.7319 40.7268 20.8843 33.5773 19.2201 26.1134C18.4984 22.8297 18.3646 19.4439 18.8251 16.1134C18.9316 14.878 19.3078 13.6809 19.9272 12.6066C20.5466 11.5323 21.3942 10.607 22.4101 9.89594C26.1276 7.74344 32.4351 9.95594 38.8726 15.6709C44.2241 20.7264 48.7686 26.5727 52.3476 33.0059C56.2684 39.4168 59.1459 46.4098 60.8726 53.7234C61.6254 57.1277 61.7415 60.6419 61.2151 64.0884C61.0899 65.3595 60.6912 66.5884 60.0465 67.6909C59.4019 68.7934 58.5264 69.7435 57.4801 70.4759C56.4755 71.0327 55.3409 71.3123 54.1926 71.2859ZM30.2426 45.7859C33.8712 52.252 38.5058 58.0993 43.9726 63.1084C49.5951 67.9459 54.0551 68.9859 55.9726 67.8584C57.9726 66.6959 59.4476 61.9509 57.9276 54.2734C56.2623 47.2908 53.5023 40.6157 49.7501 34.4959C46.3347 28.3387 41.997 22.7406 36.8876 17.8959C30.8276 12.5159 25.9126 11.3134 23.9101 12.4734C23.286 12.9806 22.7738 13.6118 22.4059 14.3269C22.038 15.0421 21.8223 15.8257 21.7726 16.6284C21.3751 19.5987 21.5046 22.6157 22.1551 25.5409C23.7559 32.6788 26.487 39.515 30.2451 45.7909L30.2426 45.7859Z" fill="#00D8FF"/>
</svg>
