<svg width="80" height="80" viewBox="0 0 80 80" fill="none" xmlns="http://www.w3.org/2000/svg">
<path d="M65.2748 44.1771C63.0765 44.1799 60.9077 44.6826 58.9323 45.6471C58.3138 44.6207 57.8362 43.5158 57.5123 42.3621C57.3262 41.4577 57.2832 40.5298 57.3848 39.6121C57.5985 38.6023 57.8757 37.6069 58.2148 36.6321C58.2023 36.5046 58.0623 35.9021 56.6548 35.8821C55.2473 35.8621 54.0348 36.1496 53.9048 36.5221C53.6603 37.2024 53.464 37.8992 53.3173 38.6071C52.1524 41.4808 50.7185 44.2381 49.0348 46.8421C48.0914 45.2956 47.7034 43.4737 47.9348 41.6771C48.1485 40.6673 48.4257 39.6719 48.7648 38.6971C48.7523 38.5696 48.6123 37.9671 47.2048 37.9471C45.7973 37.9271 44.5848 38.2146 44.4548 38.5871C44.3248 38.9596 44.1598 39.8371 43.8673 40.6721C43.5748 41.5071 40.1598 49.1371 39.2648 51.1046C38.8048 52.1046 38.4073 52.9196 38.1273 53.4696C38.114 53.5053 38.0972 53.5396 38.0773 53.5721L37.6948 54.3021V54.3146C37.5023 54.6596 37.2973 54.9796 37.1948 54.9796C37.016 54.2653 37.0246 53.517 37.2198 52.8071C37.7198 50.1596 38.9448 46.0446 38.9323 45.9021C38.9323 45.8246 39.1623 45.1096 38.1398 44.7396C37.9026 44.6267 37.6363 44.5902 37.3775 44.6349C37.1188 44.6797 36.8802 44.8036 36.6948 44.9896C36.6048 44.9896 36.5423 45.2071 36.5423 45.2071C36.5423 45.2071 37.6548 40.5796 34.4198 40.5796C33.16 40.833 31.9636 41.3357 30.901 42.0583C29.8384 42.7809 28.931 43.7087 28.2323 44.7871C27.3623 45.2596 25.5098 46.2696 23.5273 47.3571C22.7773 47.7796 21.9923 48.2021 21.2648 48.6071C21.2148 48.5571 21.1623 48.4921 21.1123 48.4421C17.1748 44.2471 9.93727 41.2871 10.2498 35.6746C10.3648 33.6296 11.0673 28.2596 24.1473 21.7371C34.9123 16.4321 43.4798 17.9021 44.9623 21.1621C47.0848 25.8171 40.3723 34.4596 29.2498 35.7121C28.0193 35.9617 26.7484 35.9316 25.5312 35.6239C24.3139 35.3162 23.1814 34.7389 22.2173 33.9346C21.6298 33.2946 21.5398 33.2571 21.3223 33.3846C20.9648 33.5771 21.1948 34.1521 21.3223 34.4846C21.7466 35.2524 22.3205 35.9275 23.0101 36.4698C23.6997 37.0121 24.491 37.4107 25.3373 37.6421C29.7129 38.5876 34.2749 38.1355 38.3798 36.3496C45.1298 33.7421 50.3798 26.4921 48.8398 20.4196C47.2923 14.2571 37.0648 12.2246 27.3848 15.6696C21.3216 17.7097 15.7193 20.9233 10.8973 25.1271C5.56477 30.1146 4.72227 34.4471 5.06727 36.2646C6.31727 42.7096 15.1948 46.9021 18.7473 50.0146C18.5868 50.1058 18.4251 50.195 18.2623 50.2821C16.4848 51.1646 9.70977 54.7071 8.01227 58.4521C6.09477 62.7021 8.31977 65.7396 9.78977 66.1496C12.0048 66.6798 14.3301 66.5051 16.441 65.65C18.552 64.7948 20.3433 63.3019 21.5648 61.3796C22.6049 59.7851 23.2443 57.9628 23.4284 56.068C23.6125 54.1732 23.336 52.262 22.6223 50.4971C22.6102 50.4685 22.5933 50.4423 22.5723 50.4196L23.9648 49.6021C24.8109 49.1019 25.6678 48.6201 26.5348 48.1571C26.0143 49.6582 25.7088 51.2254 25.6273 52.8121C25.4506 55.244 26.1948 57.6534 27.7123 59.5621C27.9432 59.7608 28.2112 59.9118 28.5009 60.0062C28.7906 60.1006 29.0961 60.1366 29.3998 60.1121C30.8998 60.1121 31.5873 58.8621 32.3398 57.3771C33.2598 55.5621 34.0898 53.4521 34.0898 53.4521C34.0898 53.4521 33.0548 59.1546 35.8673 59.1546C36.8898 59.1546 37.9248 57.8246 38.3873 57.1546V57.1671L38.4648 57.0396L38.6298 56.7721V56.7471C39.0398 56.0321 39.9598 54.4071 41.3273 51.7096C43.0923 48.2321 44.7923 43.8846 44.7923 43.8846C44.9562 44.84 45.1826 45.7837 45.4698 46.7096C45.8815 47.8319 46.3685 48.9252 46.9273 49.9821C46.5173 50.5571 46.2623 50.8771 46.2623 50.8771L46.2748 50.8896C45.9423 51.3246 45.5848 51.7971 45.1873 52.2571C44.0046 53.5573 42.9073 54.9327 41.9023 56.3746C41.7529 56.6167 41.7016 56.9068 41.7587 57.1855C41.8159 57.4642 41.9772 57.7107 42.2098 57.8746C42.7361 58.1484 43.3359 58.2474 43.9223 58.1571C44.8059 58.1072 45.6747 57.9086 46.4923 57.5696C47.2823 57.2915 48.0276 56.8999 48.7048 56.4071C49.4029 55.9234 49.9648 55.2683 50.3365 54.5048C50.7082 53.7412 50.8772 52.8948 50.8273 52.0471C50.7487 50.9791 50.4759 49.9345 50.0223 48.9646C50.1498 48.7846 50.2723 48.6071 50.3923 48.4271C51.8136 46.3055 53.0947 44.0933 54.2273 41.8046C54.3912 42.76 54.6176 43.7037 54.9048 44.6296C55.2444 45.5994 55.6624 46.5401 56.1548 47.4421C54.5196 48.7001 53.2317 50.3537 52.4123 52.2471C51.6073 54.5746 52.2323 55.6221 53.4123 55.8646C54.058 55.9091 54.7036 55.7768 55.2798 55.4821C56.127 55.2036 56.9251 54.7936 57.6448 54.2671C58.4037 53.8192 59.0393 53.1897 59.4944 52.4351C59.9496 51.6806 60.21 50.8247 60.2523 49.9446C60.1955 49.066 59.9971 48.2023 59.6648 47.3871C61.8225 46.5441 64.1621 46.2753 66.4548 46.6071C72.5398 47.3221 73.7423 51.1196 73.5123 52.7196C73.4044 53.2868 73.1764 53.8243 72.8435 54.2961C72.5106 54.7678 72.0805 55.1628 71.5823 55.4546C71.1598 55.7221 71.0198 55.8121 71.0573 56.0046C71.1073 56.2871 71.3073 56.2721 71.6698 56.2221C72.5869 55.937 73.396 55.3807 73.9905 54.6264C74.585 53.8721 74.9369 52.9554 74.9998 51.9971C75.1923 48.2471 71.6123 44.1346 65.2823 44.1721L65.2748 44.1771ZM18.3248 59.9971C16.3048 62.1971 13.4923 63.0271 12.2773 62.3246C10.9723 61.5746 11.4848 58.3246 13.9648 55.9946C15.4359 54.6703 17.026 53.4844 18.7148 52.4521C19.0098 52.2721 19.4448 52.0171 19.9648 51.7021L20.1048 51.6246L20.4123 51.4321C20.8553 52.9165 20.8955 54.4922 20.5287 55.9973C20.1618 57.5024 19.4012 58.8829 18.3248 59.9971ZM33.0273 49.9971C32.3248 51.7096 30.8548 56.0971 29.9598 55.8521C29.1923 55.6471 28.7098 52.3221 29.8073 49.0371C30.3614 47.4557 31.1686 45.9748 32.1973 44.6521C33.2973 43.4246 34.5123 43.0146 34.8048 43.5146C34.5379 45.7518 33.9388 47.9366 33.0273 49.9971ZM45.1598 55.8021C44.8648 55.9546 44.5848 56.0521 44.4573 55.9821C44.3673 55.9321 44.5848 55.7321 44.5848 55.7321C44.5848 55.7321 46.1073 54.0946 46.7073 53.3546C47.0523 52.9196 47.4573 52.4096 47.8973 51.8321V51.9971C47.8973 53.9521 46.0048 55.2696 45.1623 55.8071L45.1598 55.8021ZM54.5198 53.6671C54.3023 53.5146 54.3398 53.0021 55.0698 51.4046C55.5774 50.3786 56.2865 49.4654 57.1548 48.7196C57.2879 49.098 57.3572 49.4959 57.3598 49.8971C57.3696 50.7509 57.0966 51.584 56.5833 52.2664C56.07 52.9488 55.3454 53.4422 54.5223 53.6696L54.5198 53.6671Z" fill="#CD6799"/>
</svg>
