<svg width="80" height="80" viewBox="0 0 80 80" fill="none" xmlns="http://www.w3.org/2000/svg">
<path d="M45.1249 74C45.2299 73.7625 45.4949 73.5975 45.6874 73.3975C48.6249 70.3175 51.5874 67.265 54.4849 64.1475C55.3916 63.3101 56.0922 62.2743 56.532 61.1211C56.9718 59.9679 57.1387 58.7285 57.0199 57.5C56.9289 56.974 56.8096 56.4532 56.6624 55.94C55.8724 56.69 55.1374 57.3725 54.3974 58.06C53.2474 59.13 52.1024 60.205 50.9424 61.2625C50.2584 61.9599 49.3789 62.4334 48.4201 62.6205C47.4613 62.8075 46.4683 62.6992 45.5724 62.31C44.6654 61.9768 43.8762 61.3846 43.3029 60.6068C42.7296 59.829 42.3973 58.9 42.3474 57.935C42.3205 57.8109 42.2846 57.6889 42.2399 57.57C41.3574 58.32 40.5124 59.01 39.6749 59.72L22.2674 74.47C22.1474 74.5725 22.0174 74.7 21.9049 74.8H45.1124L45.0774 74.7775C44.9524 74.69 45.0174 74.23 45.1249 74ZM20.8424 74C21.0488 73.7312 21.2979 73.4981 21.5799 73.31L45.6699 52.8725C47.3132 51.4775 48.949 50.075 50.5774 48.665C50.7786 48.5247 50.9362 48.3307 51.0324 48.105C51.4219 46.4078 51.4771 44.6509 51.1949 42.9325C50.9449 43.1075 50.8099 43.1825 50.6949 43.305C48.7224 45.07 46.7599 46.85 44.7774 48.605C44.1206 49.266 43.2712 49.7017 42.3512 49.8495C41.4312 49.9973 40.4881 49.8496 39.6574 49.4275C38.8099 49.0274 38.1006 48.3842 37.6197 47.5798C37.1389 46.7753 36.9084 45.8459 36.9574 44.91V44.1C36.5949 44.365 36.3299 44.5425 36.0824 44.7425C26.4407 52.4625 16.8007 60.1767 7.16236 67.885C6.72736 68.2325 6.20736 69.0075 5.63736 68.255C5.06736 67.5025 5.93486 67.1925 6.37236 66.8425C16.6474 58.5975 26.9274 50.36 37.2124 42.13C38.8874 40.7875 38.9974 40.225 37.9074 38.0925L37.2574 38.7025C35.4749 40.36 33.6724 41.995 31.9174 43.68C31.1975 44.3744 30.2958 44.851 29.3166 45.0549C28.3374 45.2587 27.3204 45.1813 26.3833 44.8318C25.4461 44.4823 24.6269 43.8749 24.0203 43.0796C23.4136 42.2844 23.0443 41.3337 22.9549 40.3375C22.6224 40.5875 22.3349 40.77 22.0624 40.9825L6.81236 52.8025C6.54934 53.0605 6.24939 53.2779 5.92236 53.4475C5.67555 53.5221 5.41051 53.5089 5.17236 53.41V74.8125H20.8124C20.7542 74.684 20.7267 74.5437 20.7319 74.4028C20.7371 74.2618 20.7749 74.1239 20.8424 74Z" fill="#FFCEBF"/>
<path d="M63.0923 6.0575C62.6673 7.45 62.2548 8.845 61.8823 10.2525C61.5382 11.2471 61.5782 12.3345 61.9945 13.3011C62.4107 14.2678 63.1732 15.044 64.1323 15.4775C67.0658 17.0195 70.3715 17.7122 73.6773 17.4775V6.295C73.6405 6.04983 73.6541 5.79974 73.7173 5.56C73.7873 5.42439 73.8756 5.29905 73.9798 5.1875H63.0823C63.2498 5.3825 63.1923 5.725 63.0923 6.0575Z" fill="#FF6196"/>
<path d="M41.2052 30.08C41.1534 31.3282 40.7168 32.5298 39.9552 33.52C37.2327 37.0344 34.1063 40.2163 30.6402 43C30.0813 43.5174 29.3728 43.8445 28.6165 43.9343C27.8602 44.0241 27.0948 43.8721 26.4302 43.5C25.7687 43.2174 25.211 42.7369 24.8336 42.1245C24.4563 41.5122 24.2778 40.7979 24.3227 40.08C24.4028 39.1983 24.7689 38.3669 25.3652 37.7125C29.2411 34.0168 33.4404 30.6759 37.9127 27.73C38.2056 27.5003 38.5633 27.3686 38.9353 27.3533C39.3072 27.338 39.6745 27.4401 39.9852 27.645C40.3936 27.8986 40.7238 28.2604 40.9392 28.6902C41.1545 29.12 41.2466 29.6011 41.2052 30.08ZM38.2102 45.2325C38.1522 44.6799 38.2231 44.1214 38.4175 43.6008C38.6118 43.0803 38.9242 42.6119 39.3302 42.2325C43.1252 38.7323 47.1968 35.5444 51.5052 32.7C51.6352 32.6175 51.7552 32.535 51.8977 32.45C52.2741 32.1783 52.7301 32.0395 53.1939 32.0553C53.6578 32.0712 54.1033 32.2408 54.4602 32.5375C54.8056 32.8301 55.0499 33.224 55.1585 33.6634C55.2672 34.1028 55.2345 34.5653 55.0652 34.985C54.5201 36.8005 53.5141 38.4439 52.1452 39.755C49.365 42.4939 46.5312 45.1778 43.6452 47.805C43.2106 48.252 42.6397 48.5417 42.0224 48.6286C41.405 48.7155 40.7763 48.5946 40.2352 48.285C39.6666 47.9896 39.1825 47.5544 38.8283 47.0205C38.474 46.4865 38.2614 45.8713 38.2102 45.2325ZM56.2502 46.885C55.5502 47.635 54.8302 48.35 54.1577 49.1175C53.9555 49.4142 53.7878 49.7329 53.6577 50.0675C54.0277 50.1775 54.4602 50.4675 54.7602 50.365C56.2877 49.8525 57.7777 49.2375 59.4552 48.59C59.0902 49.43 58.8152 50.205 58.4277 50.915C56.8313 53.5979 54.8322 56.0195 52.5002 58.095C51.6136 58.95 50.6927 59.7675 49.7377 60.5475C49.232 60.9672 48.6238 61.245 47.9755 61.3526C47.3272 61.4601 46.6619 61.3935 46.0477 61.1595C45.4336 60.9256 44.8926 60.5327 44.4801 60.021C44.0677 59.5094 43.7985 58.8973 43.7002 58.2475C43.6601 57.8862 43.6921 57.5206 43.7942 57.1717C43.8963 56.8228 44.0666 56.4977 44.2952 56.215C47.6973 52.5207 51.5853 49.3054 55.8527 46.6575C55.9046 46.6374 55.9596 46.6264 56.0152 46.625L56.2502 46.885Z" fill="#FF87AF"/>
<path d="M61.9848 36.9275L66.2623 17.9275L69.2623 18.63L67.7148 23.3325C66.2698 27.7075 64.8073 32.0825 63.3973 36.4625C63.1223 37.2725 62.7623 37.4225 61.9848 36.9275ZM57.1548 48.1025C57.6073 46.375 58.0573 44.7775 58.4373 43.1625C58.8076 41.5963 59.512 40.1286 60.5023 38.86C61.1098 38.0625 61.7923 38.38 62.4898 38.5525C63.1348 38.71 63.2973 39.1825 63.3248 39.8025C63.4265 41.517 62.9043 43.2104 61.8548 44.57C60.6053 46.119 58.9901 47.3329 57.1548 48.1025Z" fill="#FF6196"/>
<path d="M74.9824 7.23505C75.0197 6.67826 75.0054 6.11922 74.9399 5.56505C74.8883 5.41026 74.7861 5.2773 74.6499 5.18755C74.5389 5.09731 74.409 5.03323 74.2699 5.00005C74.1899 4.98505 74.0774 5.06755 73.9699 5.18505C73.8657 5.2966 73.7774 5.42194 73.7074 5.55755C73.6442 5.79729 73.6306 6.04738 73.6674 6.29255V17.4726C70.3616 17.7072 67.0559 17.0146 64.1224 15.4726C63.1633 15.0391 62.4009 14.2628 61.9846 13.2962C61.5683 12.3295 61.5283 11.2422 61.8724 10.2476C62.2449 8.84005 62.6574 7.44505 63.0824 6.05255C63.1824 5.72005 63.2399 5.37755 63.0824 5.18255C62.9948 5.08762 62.8738 5.03029 62.7449 5.02255C62.5797 5.02433 62.4198 5.08058 62.2899 5.18255C62.1029 5.29438 61.954 5.45989 61.8624 5.65755C61.3624 7.15755 60.9224 8.67255 60.5399 10.2026C60.3955 10.8055 60.3566 11.4289 60.4249 12.0451C60.5216 13.16 60.9362 14.2237 61.6196 15.11C62.3029 15.9963 63.2262 16.6679 64.2799 17.0451C64.7524 17.2426 65.0299 17.4376 64.8974 18.0601C64.7149 18.8501 64.5374 19.6401 64.3574 20.4326C63.1324 25.8026 61.914 31.1751 60.7024 36.5501C60.6682 36.7897 60.5628 37.0135 60.3999 37.1926C59.6012 37.8273 58.9302 38.6078 58.4224 39.4925C57.7752 40.6601 57.3274 41.9276 57.0974 43.2426C57.0532 43.662 56.9016 44.063 56.6573 44.4068C56.4129 44.7506 56.084 45.0255 55.7024 45.2051C54.6599 45.7326 53.7024 46.4151 52.5449 47.1251C52.622 45.7331 52.607 44.3375 52.4999 42.9476C52.4118 42.52 52.4305 42.0773 52.5543 41.6586C52.6782 41.24 52.9033 40.8584 53.2099 40.5476C54.7346 39.037 55.8215 37.1415 56.3549 35.0625C56.5142 34.5806 56.5579 34.068 56.4824 33.5661C56.4069 33.0642 56.2144 32.587 55.9204 32.1733C55.6264 31.7596 55.2392 31.4208 54.79 31.1844C54.3408 30.948 53.8424 30.8206 53.3349 30.8125C52.5132 30.8034 51.7065 31.0326 51.0124 31.4725C48.6269 33.1016 46.2828 34.7904 43.9824 36.5375C42.6149 37.5676 41.3274 38.7076 40.0024 39.7876C39.9453 39.7262 39.8957 39.6582 39.8549 39.585C39.8295 39.401 39.7799 39.2211 39.7074 39.05C38.5999 37.34 39.3674 36.0976 40.5699 34.8201C41.8227 33.5068 42.5149 31.7574 42.4999 29.9426C42.5387 29.0179 42.2491 28.1092 41.6824 27.3776C41.3805 27.0061 41.0084 26.6978 40.5874 26.4701C39.9894 26.1427 39.3056 26.0061 38.6277 26.0785C37.9498 26.1509 37.3103 26.4288 36.7949 26.875L36.0974 27.375C34.5049 28.5151 32.8924 29.6251 31.3599 30.8451C29.1226 32.6312 26.9335 34.4769 24.7949 36.3801C23.7949 37.2626 23.0649 38.4676 22.0274 39.2876C16.6174 43.5601 11.1499 47.7551 5.70237 51.9776C5.51506 52.0893 5.34282 52.2246 5.18987 52.3801C5.17412 52.4028 5.16072 52.4271 5.14987 52.4526C5.03487 52.7201 4.93737 53.1626 5.07237 53.3251C5.10546 53.3603 5.14546 53.3884 5.18987 53.4076C5.42801 53.5064 5.69305 53.5196 5.93987 53.4451C6.2669 53.2754 6.56685 53.058 6.82987 52.8001L22.0799 40.98C22.3524 40.7676 22.6399 40.5751 22.9724 40.3351C23.0618 41.3313 23.4311 42.2819 24.0378 43.0771C24.6444 43.8724 25.4636 44.4799 26.4008 44.8294C27.3379 45.1789 28.3549 45.2562 29.3341 45.0524C30.3133 44.8486 31.215 44.3719 31.9349 43.6776C33.6849 41.9926 35.4924 40.3575 37.2749 38.7001L37.9249 38.09C39.0149 40.2225 38.9049 40.785 37.2299 42.1275C26.9365 50.3642 16.6507 58.6026 6.37237 66.8425C5.93487 67.1926 5.06987 67.5101 5.63737 68.2551C6.20487 69.0001 6.72737 68.2325 7.16237 67.885C16.8057 60.1834 26.4424 52.4717 36.0724 44.75C36.3224 44.55 36.5849 44.3726 36.9474 44.1076V44.9175C36.8984 45.8535 37.1289 46.7828 37.6097 47.5873C38.0906 48.3917 38.7999 49.035 39.6474 49.4351C40.4781 49.8571 41.4212 50.0048 42.3412 49.857C43.2612 49.7092 44.1106 49.2735 44.7674 48.6125C46.7499 46.8625 48.7124 45.0776 50.6849 43.3126C50.8099 43.2001 50.9549 43.1151 51.1849 42.9401C51.4671 44.6584 51.4119 46.4153 51.0224 48.1126C50.9262 48.3382 50.7686 48.5323 50.5674 48.6726C48.9374 50.0809 47.3015 51.4834 45.6599 52.8801L21.5799 73.32C21.2979 73.5082 21.0488 73.7412 20.8424 74.01C20.7765 74.1327 20.7395 74.2687 20.7343 74.4078C20.7291 74.5469 20.7558 74.6854 20.8124 74.8125C20.9253 74.8972 21.0559 74.9553 21.1944 74.9826C21.3329 75.0098 21.4758 75.0055 21.6124 74.9701C21.7202 74.9387 21.8194 74.8832 21.9024 74.8075C22.0274 74.7076 22.1524 74.5801 22.2649 74.4776L39.6724 59.7276C40.5099 59.0176 41.3549 58.3176 42.2374 57.5776C42.2821 57.6964 42.318 57.8184 42.3449 57.9426C42.3948 58.9075 42.7271 59.8366 43.3004 60.6143C43.8737 61.3921 44.6629 61.9844 45.5699 62.3176C46.4658 62.7068 47.4588 62.815 48.4176 62.628C49.3764 62.441 50.2559 61.9675 50.9399 61.2701C52.0999 60.2125 53.2449 59.1376 54.3949 58.0676C55.1449 57.38 55.8699 56.69 56.6599 55.9475C56.8071 56.4607 56.9264 56.9815 57.0174 57.5076C57.1323 58.732 56.9634 59.9665 56.5237 61.115C56.0841 62.2636 55.3855 63.2953 54.4824 64.1301C51.5849 67.2501 48.6224 70.3026 45.6849 73.3801C45.4924 73.58 45.2274 73.745 45.1224 73.9826C45.0174 74.2201 44.9499 74.6851 45.0749 74.785L45.1099 74.8075C45.372 74.935 45.6668 74.9795 45.9549 74.9351C46.0356 74.9185 46.1075 74.8732 46.1574 74.8075C46.2274 74.7351 46.2949 74.6451 46.3624 74.5775C48.7424 72.1175 51.1349 69.6701 53.4974 67.1926C54.451 66.2264 55.3475 65.2055 56.1824 64.135C57.271 62.9299 57.9929 61.4389 58.263 59.8374C58.5332 58.236 58.3404 56.5907 57.7074 55.0951C57.6393 54.7616 57.7058 54.4147 57.8924 54.1301C58.0549 53.8501 58.2349 53.5775 58.4199 53.3075C59.0118 52.539 59.5049 51.6991 59.8874 50.8075C60.6266 48.6195 61.7612 46.5858 63.2349 44.8076C63.9123 43.9486 64.3785 42.9425 64.5956 41.8703C64.8127 40.7981 64.7748 39.6899 64.4849 38.6351C64.3824 38.234 64.3824 37.8136 64.4849 37.4126C65.7499 33.4951 67.0524 29.59 68.3424 25.6826L70.0674 20.4476L70.5999 18.8301C71.7349 18.8301 72.8049 18.8076 73.8699 18.8301C74.7549 18.8551 75.0249 18.4401 75.0149 17.5801C74.9624 14.1301 74.9824 10.6826 74.9824 7.23505ZM30.6399 43.0001C30.0809 43.5174 29.3725 43.8445 28.6161 43.9343C27.8598 44.0242 27.0944 43.8721 26.4299 43.5C25.7684 43.2174 25.2107 42.7369 24.8333 42.1246C24.4559 41.5122 24.2774 40.798 24.3224 40.08C24.4024 39.1983 24.7685 38.3669 25.3649 37.7126C29.2407 34.0168 33.44 30.676 37.9124 27.7301C38.1565 27.5575 38.4342 27.4382 38.7274 27.3801C38.924 27.3438 39.1257 27.3438 39.3224 27.3801C39.5579 27.4259 39.7827 27.5158 39.9849 27.6451C40.3937 27.8988 40.7241 28.261 40.9395 28.6913C41.1549 29.1216 41.2467 29.6032 41.2049 30.0826C41.153 31.3307 40.7164 32.5323 39.9549 33.5226C37.2322 37.0361 34.1058 40.2171 30.6399 43.0001ZM43.6399 47.8225C43.2052 48.2695 42.6343 48.5592 42.017 48.6461C41.3997 48.733 40.771 48.6121 40.2299 48.3025C39.6603 48.0064 39.1755 47.5701 38.8212 47.0347C38.4669 46.4994 38.2548 45.8826 38.2049 45.2425C38.1468 44.6899 38.2178 44.1314 38.4121 43.6109C38.6065 43.0903 38.9189 42.6219 39.3249 42.2425C43.1198 38.7423 47.1914 35.5544 51.4999 32.71C51.6299 32.6276 51.7499 32.5451 51.8924 32.4601C52.2687 32.1884 52.7247 32.0495 53.1886 32.0654C53.6525 32.0812 54.0979 32.2508 54.4549 32.5476C54.8002 32.8401 55.0446 33.2341 55.1532 33.6735C55.2618 34.1128 55.2292 34.5753 55.0599 34.9951C54.5148 36.8105 53.5088 38.4539 52.1399 39.7651C49.3824 42.5201 46.5149 45.1726 43.6449 47.8125L43.6399 47.8225ZM58.4174 50.9251C56.8232 53.6036 54.8275 56.0218 52.4999 58.0951C51.6132 58.9501 50.6924 59.7676 49.7374 60.5476C49.2316 60.9672 48.6235 61.2451 47.9751 61.3526C47.3268 61.4601 46.6615 61.3935 46.0474 61.1595C45.4332 60.9256 44.8923 60.5327 44.4798 60.021C44.0673 59.5094 43.7982 58.8974 43.6999 58.2476C43.6598 57.8863 43.6917 57.5206 43.7939 57.1717C43.896 56.8229 44.0663 56.4977 44.2949 56.215C47.6969 52.5207 51.585 49.3055 55.8524 46.6576C55.9043 46.6374 55.9592 46.6264 56.0149 46.625L56.2649 46.875C55.5649 47.625 54.8449 48.34 54.1724 49.1076C53.9702 49.4042 53.8024 49.7229 53.6724 50.0576C54.0424 50.1676 54.4749 50.4576 54.7749 50.355C55.9824 49.9501 57.1699 49.48 58.4424 48.98L59.4699 48.58C59.0849 49.43 58.8099 50.205 58.4224 50.915L58.4174 50.9251ZM61.8499 44.5875C60.9173 45.7747 59.7485 46.7554 58.4174 47.4675C58.0057 47.6975 57.5832 47.9126 57.1499 48.1126C57.5949 46.4101 58.0399 44.8326 58.4174 43.2375L58.4324 43.1725C58.8027 41.6064 59.5071 40.1387 60.4974 38.8701C61.1049 38.0726 61.7874 38.3901 62.4849 38.5625C63.1299 38.7201 63.2924 39.1926 63.3199 39.8125C63.4224 41.5256 62.9021 43.218 61.8549 44.5775L61.8499 44.5875ZM67.6999 23.3376C66.2549 27.7126 64.7924 32.0876 63.3824 36.4676C63.1174 37.2901 62.7574 37.4401 61.9799 36.945L65.6874 20.4626L66.2574 17.9326L69.2574 18.6351L68.6549 20.4626L67.6999 23.3376Z" fill="black"/>
</svg>
