<svg width="258" height="37" viewBox="0 0 258 37" fill="none" xmlns="http://www.w3.org/2000/svg">
<path d="M7.92025 24.6747L0 17.893L7.92025 11.1112H14.3146L6.39433 17.893L14.3146 24.6747H7.92025ZM35.1683 28.6711L25.9401 19.2554V28.6711H20.8537V7.53867H25.9401V17.015L35.1683 7.53867H41.3083L30.8448 18.0141L41.5989 28.6711H35.1683ZM50.0309 25.3105H58.3872V28.6711H44.9445V7.53867H50.0309V25.3105ZM80.6217 11.8984V28.6711H75.499V26.5518C74.8447 27.2785 73.9848 27.8537 72.9191 28.2776C71.8776 28.6812 70.7392 28.8831 69.504 28.8831C67.9296 28.8831 66.5369 28.6106 65.3259 28.0656C64.1148 27.5005 63.1581 26.683 62.4557 25.6133C61.7775 24.5234 61.4384 23.2316 61.4384 21.738V11.8984H66.5248V21.1325C66.5248 22.4646 66.9244 23.494 67.7237 24.2206C68.523 24.927 69.613 25.2803 70.9936 25.2803C72.3984 25.2803 73.5004 24.927 74.2997 24.2206C75.0993 23.494 75.499 22.4646 75.499 21.1325V11.8984H80.6217ZM93.3422 28.9436C91.6952 28.9436 90.2177 28.7014 88.9098 28.217C87.6019 27.7124 86.5604 27.0363 85.7853 26.1885C85.0344 25.3408 84.6227 24.4023 84.55 23.3729H89.6728C89.7696 24.0188 90.1451 24.5536 90.799 24.9775C91.4772 25.4014 92.3128 25.6133 93.3059 25.6133C94.2747 25.6133 95.0256 25.4518 95.5584 25.1289C96.1155 24.8059 96.3941 24.3922 96.3941 23.8876C96.3941 23.3426 96.055 22.9389 95.3768 22.6765C94.7228 22.394 93.6692 22.0912 92.216 21.7683C90.7143 21.4655 89.479 21.1527 88.5101 20.8297C87.5655 20.5068 86.742 20.0123 86.0396 19.3462C85.3614 18.6801 85.0223 17.782 85.0223 16.6517C85.0223 15.7232 85.3372 14.8755 85.9669 14.1085C86.6209 13.3415 87.5413 12.736 88.7281 12.292C89.9392 11.8479 91.3561 11.6259 92.9789 11.6259C95.3768 11.6259 97.2902 12.1305 98.7193 13.1397C100.148 14.1287 100.935 15.4709 101.081 17.1664H96.2124C96.1397 16.5003 95.8006 15.9755 95.1951 15.592C94.6138 15.1883 93.8266 14.9865 92.8336 14.9865C91.9132 14.9865 91.1987 15.1278 90.69 15.4104C90.2056 15.6929 89.9634 16.0865 89.9634 16.5911C89.9634 17.1563 90.3025 17.5902 90.9807 17.893C91.6589 18.1756 92.7125 18.4682 94.1415 18.771C95.5948 19.0737 96.7937 19.3866 97.7383 19.7095C98.6829 20.0325 99.4943 20.5371 100.173 21.2233C100.875 21.8894 101.238 22.7775 101.262 23.8876C101.262 24.8564 100.935 25.7243 100.282 26.4913C99.6518 27.2583 98.7314 27.8638 97.5203 28.3078C96.3335 28.7317 94.9408 28.9436 93.3422 28.9436ZM113.83 24.7656L118.917 11.8984H124.33L116.882 28.6711H110.706L103.294 11.8984H108.744L113.83 24.7656ZM125.879 20.2242C125.879 18.5288 126.279 17.0251 127.078 15.7131C127.902 14.4012 129.004 13.392 130.384 12.6855C131.789 11.9791 133.351 11.6259 135.071 11.6259C136.573 11.6259 137.881 11.8782 138.995 12.3828C140.133 12.8874 141.042 13.5232 141.72 14.2902V11.8984H146.843V28.6711H141.72V26.2188C141.066 27.006 140.158 27.662 138.995 28.1867C137.857 28.6913 136.536 28.9436 135.035 28.9436C133.339 28.9436 131.789 28.5803 130.384 27.8537C129.004 27.1271 127.902 26.1078 127.078 24.7958C126.279 23.4637 125.879 21.9398 125.879 20.2242ZM141.72 20.2848C141.72 19.2554 141.478 18.3774 140.993 17.6508C140.509 16.904 139.855 16.3388 139.031 15.9553C138.208 15.5517 137.324 15.3498 136.379 15.3498C135.434 15.3498 134.562 15.5416 133.763 15.9251C132.964 16.3085 132.31 16.8737 131.801 17.6205C131.317 18.3471 131.075 19.215 131.075 20.2242C131.075 21.2334 131.317 22.1215 131.801 22.8885C132.31 23.6353 132.964 24.2105 133.763 24.6142C134.587 25.0179 135.459 25.2197 136.379 25.2197C137.324 25.2197 138.208 25.028 139.031 24.6445C139.855 24.2408 140.509 23.6756 140.993 22.949C141.478 22.2022 141.72 21.3141 141.72 20.2848ZM156.896 14.5021C157.55 13.614 158.398 12.9177 159.44 12.4131C160.505 11.9085 161.716 11.6562 163.073 11.6562V16.1067H161.729C160.13 16.1067 158.919 16.4196 158.095 17.0453C157.296 17.671 156.896 18.7609 156.896 20.315V28.6711H151.81V11.8984H156.896V14.5021ZM174.382 11.6259C175.884 11.6259 177.204 11.8782 178.343 12.3828C179.481 12.8672 180.377 13.503 181.031 14.2902V11.8984H186.154V28.7923C186.154 30.3464 185.778 31.729 185.028 32.94C184.277 34.1712 183.15 35.1401 181.649 35.8465C180.147 36.5731 178.33 36.9364 176.199 36.9364C173.341 36.9364 170.992 36.3814 169.151 35.2713C167.334 34.1612 166.305 32.6474 166.063 30.7299H171.113C171.379 31.4969 171.948 32.1024 172.82 32.5464C173.716 33.0107 174.794 33.2428 176.054 33.2428C177.531 33.2428 178.73 32.8694 179.651 32.1226C180.571 31.396 181.031 30.2859 181.031 28.7923V26.1885C180.377 26.9757 179.469 27.6317 178.306 28.1565C177.168 28.6812 175.86 28.9436 174.382 28.9436C172.687 28.9436 171.137 28.5803 169.732 27.8537C168.327 27.1271 167.213 26.1078 166.39 24.7958C165.59 23.4637 165.191 21.9398 165.191 20.2242C165.191 18.5288 165.59 17.0251 166.39 15.7131C167.213 14.4012 168.315 13.392 169.696 12.6855C171.101 11.9791 172.663 11.6259 174.382 11.6259ZM181.031 20.2848C181.031 19.2554 180.789 18.3774 180.304 17.6508C179.82 16.904 179.166 16.3388 178.343 15.9553C177.519 15.5517 176.635 15.3498 175.69 15.3498C174.746 15.3498 173.874 15.5416 173.075 15.9251C172.275 16.3085 171.621 16.8737 171.113 17.6205C170.628 18.3471 170.386 19.215 170.386 20.2242C170.386 21.2334 170.628 22.1215 171.113 22.8885C171.621 23.6353 172.275 24.2105 173.075 24.6142C173.898 25.0179 174.77 25.2197 175.69 25.2197C176.635 25.2197 177.519 25.028 178.343 24.6445C179.166 24.2408 179.82 23.6756 180.304 22.949C180.789 22.2022 181.031 21.3141 181.031 20.2848ZM202.457 11.6562C203.983 11.6562 205.339 11.9387 206.526 12.5039C207.713 13.0489 208.633 13.8663 209.287 14.9562C209.965 16.026 210.304 17.3177 210.304 18.8315V28.6711H205.218V19.4068C205.218 18.0746 204.818 17.0553 204.019 16.3489C203.22 15.6223 202.13 15.259 200.749 15.259C199.344 15.259 198.23 15.6223 197.407 16.3489C196.607 17.0553 196.208 18.0746 196.208 19.4068V28.6711H191.121V6.26708H196.208V13.9874C196.862 13.2608 197.734 12.6956 198.824 12.292C199.914 11.8681 201.125 11.6562 202.457 11.6562ZM217.721 9.90018C216.825 9.90018 216.074 9.66806 215.469 9.20383C214.887 8.71942 214.597 8.124 214.597 7.41756C214.597 6.71113 214.887 6.1258 215.469 5.66157C216.074 5.17716 216.825 4.93495 217.721 4.93495C218.617 4.93495 219.356 5.17716 219.938 5.66157C220.543 6.1258 220.846 6.71113 220.846 7.41756C220.846 8.124 220.543 8.71942 219.938 9.20383C219.356 9.66806 218.617 9.90018 217.721 9.90018ZM220.228 11.8984V28.6711H215.142V11.8984H220.228ZM238.878 0L229.068 34.1511H224.091L233.9 0H238.878ZM243.649 11.1112H250.08L258 17.893L250.08 24.6747H243.649L251.606 17.893L243.649 11.1112Z" fill="#242526"/>
</svg>
