<svg width="258" height="38" viewBox="0 0 258 38" fill="none" xmlns="http://www.w3.org/2000/svg">
<path d="M7.92025 25.1068L0 18.325L7.92025 11.5432H14.3146L6.39433 18.325L14.3146 25.1068H7.92025ZM35.1683 29.1032L25.9401 19.6874V29.1032H20.8537V7.97067H25.9401V17.447L35.1683 7.97067H41.3083L30.8448 18.4461L41.5989 29.1032H35.1683ZM50.0309 25.7425H58.3872V29.1032H44.9445V7.97067H50.0309V25.7425ZM80.6217 12.3304V29.1032H75.499V26.9839C74.8447 27.7105 73.9848 28.2857 72.9191 28.7096C71.8776 29.1132 70.7392 29.3151 69.504 29.3151C67.9296 29.3151 66.5369 29.0426 65.3259 28.4976C64.1148 27.9325 63.1581 27.115 62.4557 26.0453C61.7775 24.9554 61.4384 23.6636 61.4384 22.17V12.3304H66.5248V21.5645C66.5248 22.8966 66.9244 23.926 67.7237 24.6526C68.523 25.3591 69.613 25.7123 70.9936 25.7123C72.3984 25.7123 73.5004 25.3591 74.2997 24.6526C75.0993 23.926 75.499 22.8966 75.499 21.5645V12.3304H80.6217ZM93.3422 29.3756C91.6952 29.3756 90.2177 29.1334 88.9098 28.649C87.6019 28.1444 86.5604 27.4683 85.7853 26.6205C85.0344 25.7728 84.6227 24.8343 84.55 23.8049H89.6728C89.7696 24.4508 90.1451 24.9857 90.799 25.4095C91.4772 25.8334 92.3128 26.0453 93.3059 26.0453C94.2747 26.0453 95.0256 25.8838 95.5584 25.5609C96.1155 25.2379 96.3941 24.8242 96.3941 24.3196C96.3941 23.7746 96.055 23.3709 95.3768 23.1086C94.7228 22.826 93.6692 22.5232 92.216 22.2003C90.7143 21.8975 89.479 21.5847 88.5101 21.2617C87.5655 20.9388 86.742 20.4443 86.0396 19.7782C85.3614 19.1122 85.0223 18.214 85.0223 17.0837C85.0223 16.1552 85.3372 15.3075 85.9669 14.5405C86.6209 13.7735 87.5413 13.168 88.7281 12.724C89.9392 12.2799 91.3561 12.0579 92.9789 12.0579C95.3768 12.0579 97.2902 12.5625 98.7193 13.5717C100.148 14.5607 100.935 15.9029 101.081 17.5984H96.2124C96.1397 16.9323 95.8006 16.4075 95.1951 16.024C94.6138 15.6203 93.8266 15.4185 92.8336 15.4185C91.9132 15.4185 91.1987 15.5598 90.69 15.8424C90.2056 16.1249 89.9634 16.5185 89.9634 17.0231C89.9634 17.5883 90.3025 18.0222 90.9807 18.325C91.6589 18.6076 92.7125 18.9002 94.1415 19.203C95.5948 19.5057 96.7937 19.8186 97.7383 20.1415C98.6829 20.4645 99.4943 20.9691 100.173 21.6553C100.875 22.3214 101.238 23.2095 101.262 24.3196C101.262 25.2884 100.935 26.1563 100.282 26.9233C99.6518 27.6903 98.7314 28.2958 97.5203 28.7398C96.3335 29.1637 94.9408 29.3756 93.3422 29.3756ZM113.83 25.1976L118.917 12.3304H124.33L116.882 29.1032H110.706L103.294 12.3304H108.744L113.83 25.1976ZM125.879 20.6562C125.879 18.9608 126.279 17.4571 127.078 16.1451C127.902 14.8332 129.004 13.824 130.384 13.1176C131.789 12.4111 133.351 12.0579 135.071 12.0579C136.573 12.0579 137.881 12.3102 138.995 12.8148C140.133 13.3194 141.042 13.9552 141.72 14.7222V12.3304H146.843V29.1032H141.72V26.6508C141.066 27.438 140.158 28.094 138.995 28.6187C137.857 29.1233 136.536 29.3756 135.035 29.3756C133.339 29.3756 131.789 29.0123 130.384 28.2857C129.004 27.5591 127.902 26.5398 127.078 25.2279C126.279 23.8957 125.879 22.3718 125.879 20.6562ZM141.72 20.7168C141.72 19.6874 141.478 18.8094 140.993 18.0828C140.509 17.336 139.855 16.7708 139.031 16.3873C138.208 15.9837 137.324 15.7818 136.379 15.7818C135.434 15.7818 134.562 15.9736 133.763 16.3571C132.964 16.7406 132.31 17.3057 131.801 18.0525C131.317 18.7791 131.075 19.647 131.075 20.6562C131.075 21.6654 131.317 22.5535 131.801 23.3205C132.31 24.0673 132.964 24.6425 133.763 25.0462C134.587 25.4499 135.459 25.6517 136.379 25.6517C137.324 25.6517 138.208 25.46 139.031 25.0765C139.855 24.6728 140.509 24.1077 140.993 23.381C141.478 22.6342 141.72 21.7461 141.72 20.7168ZM156.896 14.9341C157.55 14.046 158.398 13.3497 159.44 12.8451C160.505 12.3405 161.716 12.0882 163.073 12.0882V16.5387H161.729C160.13 16.5387 158.919 16.8516 158.095 17.4773C157.296 18.103 156.896 19.1929 156.896 20.747V29.1032H151.81V12.3304H156.896V14.9341ZM174.382 12.0579C175.884 12.0579 177.204 12.3102 178.343 12.8148C179.481 13.2992 180.377 13.935 181.031 14.7222V12.3304H186.154V29.2243C186.154 30.7784 185.778 32.161 185.028 33.372C184.277 34.6033 183.15 35.5721 181.649 36.2785C180.147 37.0051 178.33 37.3684 176.199 37.3684C173.341 37.3684 170.992 36.8134 169.151 35.7033C167.334 34.5932 166.305 33.0794 166.063 31.1619H171.113C171.379 31.9289 171.948 32.5344 172.82 32.9785C173.716 33.4427 174.794 33.6748 176.054 33.6748C177.531 33.6748 178.73 33.3014 179.651 32.5546C180.571 31.828 181.031 30.7179 181.031 29.2243V26.6205C180.377 27.4077 179.469 28.0637 178.306 28.5885C177.168 29.1132 175.86 29.3756 174.382 29.3756C172.687 29.3756 171.137 29.0123 169.732 28.2857C168.327 27.5591 167.213 26.5398 166.39 25.2279C165.59 23.8957 165.191 22.3718 165.191 20.6562C165.191 18.9608 165.59 17.4571 166.39 16.1451C167.213 14.8332 168.315 13.824 169.696 13.1176C171.101 12.4111 172.663 12.0579 174.382 12.0579ZM181.031 20.7168C181.031 19.6874 180.789 18.8094 180.304 18.0828C179.82 17.336 179.166 16.7708 178.343 16.3873C177.519 15.9837 176.635 15.7818 175.69 15.7818C174.746 15.7818 173.874 15.9736 173.075 16.3571C172.275 16.7406 171.621 17.3057 171.113 18.0525C170.628 18.7791 170.386 19.647 170.386 20.6562C170.386 21.6654 170.628 22.5535 171.113 23.3205C171.621 24.0673 172.275 24.6425 173.075 25.0462C173.898 25.4499 174.77 25.6517 175.69 25.6517C176.635 25.6517 177.519 25.46 178.343 25.0765C179.166 24.6728 179.82 24.1077 180.304 23.381C180.789 22.6342 181.031 21.7461 181.031 20.7168ZM202.457 12.0882C203.983 12.0882 205.339 12.3708 206.526 12.9359C207.713 13.4809 208.633 14.2983 209.287 15.3882C209.965 16.458 210.304 17.7497 210.304 19.2635V29.1032H205.218V19.8388C205.218 18.5066 204.818 17.4874 204.019 16.7809C203.22 16.0543 202.13 15.691 200.749 15.691C199.344 15.691 198.23 16.0543 197.407 16.7809C196.607 17.4874 196.208 18.5066 196.208 19.8388V29.1032H191.121V6.69909H196.208V14.4194C196.862 13.6928 197.734 13.1276 198.824 12.724C199.914 12.3001 201.125 12.0882 202.457 12.0882ZM217.721 10.3322C216.825 10.3322 216.074 10.1001 215.469 9.63584C214.887 9.15143 214.597 8.556 214.597 7.84957C214.597 7.14313 214.887 6.5578 215.469 6.09358C216.074 5.60916 216.825 5.36696 217.721 5.36696C218.617 5.36696 219.356 5.60916 219.938 6.09358C220.543 6.5578 220.846 7.14313 220.846 7.84957C220.846 8.556 220.543 9.15143 219.938 9.63584C219.356 10.1001 218.617 10.3322 217.721 10.3322ZM220.228 12.3304V29.1032H215.142V12.3304H220.228ZM238.878 0.432007L229.068 34.5831H224.091L233.9 0.432007H238.878ZM243.649 11.5432H250.08L258 18.325L250.08 25.1068H243.649L251.606 18.325L243.649 11.5432Z" fill="#F4F5F7"/>
</svg>
